<!DOCTYPE svg PUBLIC "-//W3C//DTD SVG 20010904//EN" "http://www.w3.org/TR/2001/REC-SVG-20010904/DTD/svg10.dtd">
<svg version="1.0" xmlns="http://www.w3.org/2000/svg" width="100px" height="100px" viewBox="0 0 1000 1000" preserveAspectRatio="xMidYMid meet">
<g id="layer1" fill="#000000" stroke="none">
 <path d="M139 790 c-136 -41 -163 -207 -47 -293 39 -29 115 -33 155 -8 71 45 88 119 38 171 -16 16 -32 30 -37 30 -14 0 -9 -19 12 -40 28 -28 25 -66 -9 -100 -52 -53 -131 -52 -175 1 -31 37 -33 69 -6 124 48 100 196 122 286 43 46 -41 66 -81 120 -246 25 -75 59 -161 75 -189 l29 -53 -72 0 c-116 0 -175 42 -185 131 -6 56 9 96 43 111 24 11 29 10 50 -15 13 -16 24 -37 24 -48 0 -11 7 -19 16 -19 26 0 9 60 -26 93 -80 72 -181 -18 -150 -134 6 -22 27 -58 46 -79 51 -56 99 -71 214 -68 l95 3 -2 40 c-2 32 -47 253 -69 340 -2 11 5 2 17 -20 66 -124 155 -259 196 -299 51 -51 97 -69 158 -64 33 2 41 7 43 27 6 36 -10 43 -52 22 -68 -35 -116 1 -175 130 -40 89 -75 246 -69 311 8 79 49 96 106 45 33 -31 27 -1 -7 34 -39 38 -80 39 -122 1 -23 -21 -32 -39 -36 -72 -4 -39 11 -132 32 -195 19 -55 -50 74 -91 170 -50 120 -59 134 -73 119 -7 -7 38 -266 84 -484 l5 -25 -15 26 c-8 15 -35 89 -60 165 -67 207 -113 274 -212 310 -42 14 -114 17 -154 4z"/>
 </g>

</svg>